<?xml version="1.0" standalone="no"?>
<!DOCTYPE svg PUBLIC "-//W3C//DTD SVG 20010904//EN"
 "http://www.w3.org/TR/2001/REC-SVG-20010904/DTD/svg10.dtd">
<svg version="1.0" xmlns="http://www.w3.org/2000/svg"
 width="716.000000pt" height="406.000000pt" viewBox="0 0 716.000000 406.000000"
 preserveAspectRatio="xMidYMid meet">

<g transform="translate(0.000000,406.000000) scale(0.100000,-0.100000)"
fill="#000000" stroke="none">
<path d="M734 3136 c11 -9 17 -19 13 -22 -4 -4 -13 -1 -22 6 -9 7 -18 10 -22
6 -3 -3 -1 -6 5 -6 6 0 9 -7 6 -15 -5 -12 -10 -13 -19 -5 -10 8 -15 6 -20 -9
-3 -12 -11 -21 -17 -21 -6 0 -6 -6 2 -15 8 -9 9 -15 2 -15 -6 0 -14 5 -18 11
-7 12 -28 -3 -30 -21 -1 -6 -2 -15 -3 -21 0 -5 -5 -7 -11 -4 -5 3 -10 0 -10
-8 0 -9 7 -14 18 -12 71 14 76 16 61 26 -11 7 -11 9 4 9 10 0 20 -6 23 -13 2
-7 13 -13 24 -14 24 -2 27 31 5 53 -21 22 -19 34 6 31 33 -3 38 48 7 63 -22
11 -22 10 -4 -4z"/>
<path d="M563 2968 c1 -7 -3 -12 -10 -11 -6 1 -10 -5 -8 -15 1 -9 -2 -23 -7
-29 -12 -15 -4 -43 12 -43 5 0 10 8 11 18 0 10 3 12 6 5 2 -7 11 -13 19 -13
21 0 19 86 -2 94 -22 8 -24 8 -21 -6z m17 -39 c0 -6 -4 -7 -10 -4 -5 3 -10 11
-10 16 0 6 5 7 10 4 6 -3 10 -11 10 -16z"/>
<path d="M580 2860 c0 -6 -5 -8 -12 -4 -7 4 -8 3 -4 -4 4 -6 13 -9 21 -5 8 3
15 0 15 -6 0 -6 7 -11 15 -11 8 0 15 -4 15 -10 0 -5 -5 -10 -11 -10 -5 0 -7
-5 -4 -10 4 -6 10 -8 14 -5 4 2 7 -8 7 -23 -2 -30 12 -55 25 -46 5 3 4 -7 -1
-21 -12 -33 -12 -35 0 -35 6 0 10 8 10 18 0 14 8 19 30 19 36 0 50 11 30 23
-13 9 -13 10 0 11 10 0 8 3 -5 9 -15 6 -16 9 -4 9 12 1 16 14 18 55 l2 54 -81
1 c-52 1 -80 -2 -80 -9z m107 -52 c-3 -8 -6 -5 -6 6 -1 11 2 17 5 13 3 -3 4
-12 1 -19z"/>
<path d="M1710 2830 c-48 -7 -45 -7 24 -5 l78 3 -6 -30 c-3 -17 -6 -39 -6 -49
0 -14 -7 -19 -25 -19 -23 0 -25 -4 -24 -42 0 -36 2 -39 9 -20 6 15 18 22 35
22 l25 0 0 -109 0 -109 46 -4 c25 -2 47 -1 50 1 2 2 5 36 6 75 l2 71 5 -75 6
-75 45 4 c53 3 53 3 53 36 0 31 4 31 28 1 36 -46 122 -57 194 -24 30 14 32 41
5 85 -19 32 -19 33 0 43 31 17 26 61 -12 97 -59 56 -121 56 -182 0 -31 -29
-36 -40 -36 -78 0 -24 -3 -61 -6 -81 -6 -36 -8 -38 -45 -38 l-38 0 -3 72 c-2
46 -7 73 -15 76 -10 3 -13 -16 -13 -72 l0 -76 -40 0 -40 0 0 149 c0 161 0 161
56 161 22 0 24 -4 24 -50 0 -47 1 -50 20 -40 26 14 67 3 85 -23 8 -12 15 -16
15 -10 0 20 -53 54 -79 51 -24 -3 -26 0 -29 40 l-3 43 -44 -2 c-25 -2 -47 0
-51 4 -8 8 -33 7 -114 -3z m522 -117 c42 -37 40 -47 -15 -88 -48 -36 -53 -60
-8 -35 18 9 22 6 36 -20 20 -38 14 -47 -36 -60 -51 -14 -91 -6 -129 27 -27 22
-30 31 -30 82 0 47 4 61 23 79 47 45 119 51 159 15z"/>
<path d="M2136 2654 c-10 -27 3 -30 27 -6 l21 22 -21 0 c-11 0 -24 -7 -27 -16z"/>
<path d="M1590 2745 c0 -73 1 -75 24 -75 15 0 27 -7 29 -17 3 -10 5 0 4 22 -2
35 -5 40 -24 38 -21 -3 -23 1 -23 46 0 43 3 50 23 54 19 4 18 4 -5 6 l-28 1 0
-75z"/>
<path d="M623 2693 c-14 -29 -8 -47 7 -23 9 13 14 50 8 50 -2 0 -9 -12 -15
-27z"/>
<path d="M602 2698 c-7 -7 -12 -20 -12 -31 0 -12 -4 -16 -12 -11 -9 5 -8 2 1
-9 12 -15 12 -17 -4 -11 -13 5 -16 4 -11 -4 4 -7 2 -12 -3 -12 -6 0 -10 -6 -9
-12 2 -7 -2 -12 -9 -11 -8 2 -10 -4 -6 -15 3 -9 3 -14 -2 -10 -4 4 -16 -8 -26
-27 -20 -36 -26 -61 -9 -35 8 13 10 12 11 -5 1 -11 2 -35 4 -52 2 -19 -1 -30
-7 -27 -5 4 -7 17 -3 31 4 16 2 22 -5 18 -5 -3 -10 0 -10 7 0 8 -5 6 -11 -5
-5 -9 -7 -22 -4 -28 4 -6 -1 -17 -11 -24 -17 -13 -12 -14 47 -11 36 1 71 6 77
10 8 5 12 42 12 107 0 91 2 99 19 99 11 0 22 6 24 13 4 10 6 10 6 0 1 -18 21
-16 21 1 0 19 -21 25 -42 12 -24 -14 -33 -1 -20 29 13 28 12 31 -6 13z m-22
-97 c0 -5 -9 -19 -21 -32 l-20 -24 17 33 c19 33 24 38 24 23z m6 -138 c-10
-10 -19 5 -10 18 6 11 8 11 12 0 2 -7 1 -15 -2 -18z"/>
<path d="M1752 2584 c-2 -69 -7 -74 -72 -74 -34 0 -39 3 -43 28 -3 15 -4 5 -3
-23 l1 -50 55 3 c30 2 59 7 63 11 4 5 6 43 4 87 -3 73 -3 74 -5 18z"/>
<path d="M720 2545 c0 -14 5 -25 10 -25 6 0 10 11 10 25 0 14 -4 25 -10 25 -5
0 -10 -11 -10 -25z"/>
<path d="M730 2472 c0 -7 7 -20 15 -28 19 -20 20 -4 0 22 -9 12 -14 14 -15 6z"/>
<path d="M4329 2426 c-2 -2 -173 -14 -380 -27 -355 -22 -377 -22 -393 -6 -22
22 -25 22 -447 -8 -195 -13 -378 -26 -408 -28 -71 -5 -81 -20 -82 -116 l0 -76
-24 52 c-26 58 -90 125 -147 154 -109 56 -196 59 -601 25 -234 -21 -282 -27
-299 -43 -21 -18 -21 -20 -14 -698 7 -620 9 -681 24 -696 12 -12 70 -22 215
-39 190 -22 198 -22 217 -5 14 13 20 31 20 64 0 25 3 62 6 82 l6 37 62 -44
c33 -25 81 -60 106 -79 73 -57 133 -95 148 -95 8 0 54 42 101 92 47 51 110
118 138 148 l53 55 0 -106 c0 -84 3 -109 15 -119 13 -11 89 -10 408 4 444 19
474 22 486 45 5 9 11 145 15 303 7 285 6 288 -15 309 -19 19 -29 21 -80 15
l-59 -6 0 39 c0 21 3 59 6 83 l6 46 47 5 c38 4 49 2 65 -15 17 -18 26 -20 99
-13 l80 7 -6 -99 c-14 -207 -29 -703 -23 -727 4 -15 15 -28 29 -31 39 -9 477
41 492 56 11 11 15 98 21 426 l7 412 38 6 c21 4 54 5 74 4 l36 -4 33 95 c22
65 33 117 35 163 1 37 6 93 11 125 6 31 10 87 10 125 0 84 -18 107 -83 107
-24 0 -46 -2 -48 -4z m-1985 -58 c61 -15 140 -64 176 -109 118 -148 85 -378
-85 -582 -31 -38 -77 -83 -101 -100 -24 -17 -44 -33 -44 -36 1 -8 149 -114
172 -123 10 -4 43 -26 73 -48 l56 -41 -103 -112 c-57 -61 -115 -125 -129 -140
l-26 -29 -107 84 c-125 96 -238 178 -247 178 -4 0 -8 -53 -8 -117 -1 -64 -3
-119 -5 -121 -5 -4 -374 43 -380 49 -3 3 -8 275 -12 605 l-7 601 54 6 c30 4
151 15 269 27 118 11 233 21 255 23 52 5 150 -2 199 -15z m1190 14 c2 -4 0
-28 -4 -52 -5 -25 -14 -121 -20 -215 -7 -93 -15 -188 -18 -210 -7 -39 -8 -40
-57 -45 l-50 -5 -2 -40 c-2 -22 -8 -73 -13 -113 -17 -122 -22 -114 73 -110
l82 3 3 -165 c1 -91 -1 -214 -5 -275 l-8 -110 -65 -8 c-131 -15 -775 -45 -784
-36 -9 8 -23 1318 -15 1320 2 0 173 16 379 34 394 34 496 40 504 27z m876 -19
c0 -37 -38 -345 -43 -349 -2 -3 -43 -9 -90 -15 l-85 -11 -6 -82 c-3 -44 -8
-236 -11 -426 -4 -190 -7 -346 -9 -347 -3 -3 -450 -53 -452 -50 -3 3 21 564
32 756 l7 114 -102 -7 -101 -8 0 44 c1 88 19 340 25 347 7 6 669 57 778 60 56
1 57 0 57 -26z m-1781 -830 c1 -95 -2 -173 -5 -173 -3 0 -19 10 -35 23 -15 12
-53 38 -84 57 -30 19 -55 38 -55 42 0 4 20 34 43 65 58 77 92 138 108 193 l14
45 7 -40 c4 -22 7 -118 7 -212z"/>
<path d="M1885 2335 c-132 -13 -250 -24 -263 -25 l-22 0 2 -587 3 -588 40 -3
c22 -1 94 -9 160 -17 67 -8 126 -15 133 -15 9 0 12 34 12 124 0 69 4 127 8
130 7 4 62 -34 187 -132 115 -89 174 -132 182 -132 5 0 58 52 118 116 l109
117 -29 24 c-17 13 -57 40 -90 60 -58 34 -195 132 -195 139 0 2 15 10 33 18
42 18 142 117 191 188 161 240 128 481 -78 574 -84 38 -195 40 -501 9z m264
-351 c48 -60 11 -150 -85 -211 -47 -30 -129 -61 -138 -52 -3 2 1 62 7 133 l12
129 35 13 c19 7 61 13 92 13 50 1 59 -2 77 -25z"/>
<path d="M2005 1976 l-40 -12 -8 -103 c-4 -57 -6 -106 -3 -108 9 -10 113 45
144 76 40 38 55 75 46 113 -10 46 -60 58 -139 34z"/>
<path d="M4065 2345 c-93 -7 -240 -16 -325 -20 -85 -4 -156 -8 -157 -9 0 0 -4
-81 -8 -180 l-8 -178 103 7 103 7 -7 -158 c-11 -272 -26 -566 -31 -638 l-5
-69 67 6 c365 35 341 30 347 70 3 18 8 210 11 427 3 217 8 396 10 398 2 2 42
7 89 11 48 5 88 10 90 12 1 2 11 60 20 129 9 69 20 142 23 163 l6 37 -79 -1
c-44 -1 -155 -7 -249 -14z"/>
<path d="M742 2396 c6 -14 15 -26 20 -26 10 0 -7 36 -22 45 -6 4 -5 -5 2 -19z"/>
<path d="M434 2373 c-4 -16 -11 -33 -16 -39 -5 -7 -4 -23 2 -39 9 -25 9 -26
-5 -15 -12 10 -15 10 -15 -3 0 -8 9 -17 20 -20 11 -3 20 -11 20 -18 0 -10 -3
-10 -12 -1 -15 15 -38 16 -38 2 0 -5 6 -10 14 -10 7 0 16 -10 19 -22 6 -23 6
-23 -9 -3 -13 17 -16 18 -24 5 -5 -8 -10 -22 -11 -30 0 -8 -3 -24 -5 -35 -3
-11 -6 -31 -8 -45 -2 -14 -7 -33 -11 -43 -4 -10 -5 -21 -1 -24 3 -4 6 -1 6 5
0 7 7 12 15 12 20 0 19 -8 -6 -69 -18 -42 -20 -56 -10 -77 13 -29 15 -78 2
-70 -5 3 -9 -12 -9 -34 -1 -24 4 -40 11 -40 7 0 6 -4 -3 -10 -13 -9 -13 -11 0
-20 13 -9 13 -11 0 -20 -13 -8 -12 -10 4 -10 16 0 17 -5 11 -45 -8 -56 2 -115
17 -94 7 10 8 1 5 -29 -3 -24 -1 -40 4 -36 5 3 10 17 10 32 1 18 3 21 6 9 3
-10 0 -32 -6 -49 -9 -25 -7 -38 11 -77 12 -25 23 -55 24 -66 1 -11 9 -33 18
-49 l15 -29 15 34 c8 19 15 28 15 21 1 -7 -4 -22 -9 -32 -7 -13 -7 -21 0 -25
6 -4 7 -13 2 -22 -15 -25 58 -150 79 -137 5 3 6 -2 3 -11 -4 -9 0 -23 8 -33 8
-9 19 -29 26 -44 6 -15 23 -34 37 -44 14 -9 25 -22 25 -29 0 -7 18 -32 41 -56
22 -24 31 -31 20 -15 -15 20 -18 33 -11 40 13 13 13 63 0 68 -16 5 -19 96 -4
109 16 13 19 39 4 39 -5 0 -10 -4 -10 -10 0 -5 -7 -7 -15 -4 -20 8 -67 -4 -60
-15 3 -5 -4 -7 -15 -4 -11 3 -17 9 -14 14 3 5 0 9 -5 9 -7 0 -12 32 -12 83 -1
45 -4 72 -6 60 -2 -13 -11 -23 -19 -23 -11 0 -12 4 -5 18 5 10 7 37 4 60 -6
42 11 61 20 25 4 -14 5 -13 6 4 1 13 -6 23 -16 26 -10 2 1 8 25 12 33 6 42 12
43 29 0 21 1 21 11 -1 12 -25 23 -29 34 -12 12 20 24 -13 24 -68 0 -58 6 -64
34 -31 18 21 18 24 3 51 -10 16 -14 33 -11 39 4 6 -4 20 -17 30 -13 11 -19 17
-13 14 7 -3 9 3 6 19 -2 14 -9 25 -14 25 -6 0 -8 9 -5 20 3 11 1 18 -4 14 -5
-3 -9 10 -10 28 0 22 -3 27 -7 16 -5 -12 -11 -15 -21 -9 -8 5 -20 7 -28 4 -19
-8 -16 11 6 31 15 13 20 14 24 4 2 -7 8 -10 12 -6 5 5 3 25 -3 47 -7 21 -12
48 -12 59 0 11 -4 22 -10 24 -5 2 -9 19 -8 38 0 19 1 87 2 152 0 64 4 114 9
111 4 -2 7 2 7 11 0 8 3 22 7 32 4 11 2 15 -4 11 -6 -4 -8 3 -5 19 3 20 7 23
14 12 6 -9 7 -6 3 10 -4 13 -2 22 4 22 6 0 11 10 11 23 0 18 -2 19 -10 7 -8
-12 -10 -11 -10 7 0 12 -4 25 -10 28 -5 3 -10 18 -9 33 0 25 1 25 12 -8 16
-48 32 -39 31 18 0 25 1 41 4 34 2 -6 8 -12 14 -12 6 0 8 6 5 14 -3 8 1 20 9
26 22 19 17 32 -13 28 -19 -2 -29 -10 -33 -28 -5 -20 -11 -24 -33 -22 l-27 3
0 -70 c0 -58 3 -70 18 -74 13 -3 12 -4 -3 -3 -17 1 -21 12 -30 76 l-11 75 -6
-74 c-5 -48 -3 -80 3 -88 10 -11 9 -59 -4 -163 -2 -19 -2 -23 0 -7 2 15 7 27
9 27 14 0 35 -32 31 -48 -4 -16 -5 -16 -6 1 0 9 -5 17 -11 17 -6 0 -11 -35
-11 -82 -1 -60 -4 -75 -9 -53 -5 21 -8 2 -9 -62 0 -50 3 -103 9 -117 6 -16 6
-27 0 -31 -17 -11 -12 -65 6 -65 11 0 14 -5 9 -17 -4 -10 -9 -42 -12 -72 l-6
-53 -45 6 c-25 3 -53 6 -63 6 -15 0 -19 10 -21 53 l-3 52 -18 -35 c-12 -23
-16 -26 -11 -10 3 14 7 37 8 53 0 15 5 27 10 27 5 0 6 18 3 40 -3 25 -1 38 5
34 6 -4 8 26 5 86 -3 56 -10 96 -17 100 -8 5 -7 9 4 13 14 5 15 20 9 99 -3 51
-10 95 -15 96 -4 2 -8 10 -8 18 0 9 4 13 9 10 13 -8 22 110 11 139 -13 33 -12
38 0 30 6 -4 10 23 10 75 0 57 -3 79 -11 74 -8 -4 -9 0 -4 15 3 11 4 21 1 21
-3 0 -9 -12 -12 -27z m256 -153 c0 -13 -1 -13 -10 0 -5 8 -10 22 -10 30 0 13
1 13 10 0 5 -8 10 -22 10 -30z m-53 -12 c-3 -7 -5 -2 -5 12 0 14 2 19 5 13 2
-7 2 -19 0 -25z m-206 -241 c-10 -9 -11 -8 -5 6 3 10 9 15 12 12 3 -3 0 -11
-7 -18z m268 -507 c0 -8 -5 -4 -13 10 -7 14 -10 29 -8 34 6 11 20 -20 21 -44z
m56 -130 c-3 -5 -11 -10 -16 -10 -6 0 -7 5 -4 10 3 6 11 10 16 10 6 0 7 -4 4
-10z m-265 -10 c0 -5 -4 -10 -10 -10 -5 0 -10 5 -10 10 0 6 5 10 10 10 6 0 10
-4 10 -10z m70 -161 c0 -14 -17 -10 -23 5 -4 10 -1 13 9 9 7 -3 14 -9 14 -14z
m74 -102 c5 -22 5 -22 20 -2 9 11 16 15 16 8 0 -6 -5 -15 -10 -18 -6 -4 -8
-11 -5 -16 4 -5 1 -17 -5 -26 -11 -17 -11 -17 -6 0 8 25 -4 43 -16 26 -8 -11
-9 -10 -4 4 3 11 -2 22 -14 29 -25 16 -26 28 -1 21 11 -3 22 -14 25 -26z"/>
<path d="M6046 2384 c-179 -35 -315 -140 -385 -298 -27 -60 -28 -64 -25 -237
3 -199 10 -236 54 -280 28 -29 30 -33 17 -53 -8 -12 -27 -60 -42 -106 -16 -47
-41 -118 -57 -158 -23 -60 -28 -87 -28 -160 0 -48 4 -92 8 -97 15 -22 161 -75
272 -100 135 -30 326 -18 456 28 179 64 294 195 325 372 16 96 7 264 -20 340
-12 32 -41 85 -66 117 l-45 58 40 152 c40 155 56 306 39 355 -9 23 -87 52
-203 72 -80 15 -255 12 -340 -5z m347 -24 c90 -18 157 -41 167 -60 15 -28 -5
-157 -49 -314 -22 -76 -43 -142 -48 -147 -6 -6 -22 -3 -42 7 -49 24 -49 9 1
-20 64 -37 123 -103 155 -171 25 -53 28 -74 31 -185 4 -130 -10 -236 -30 -224
-7 4 -8 2 -4 -5 8 -12 -27 -78 -61 -116 -59 -67 -190 -144 -244 -143 -13 1
-49 -5 -79 -11 -68 -15 -230 -16 -290 -2 -25 6 -66 11 -93 11 -26 0 -55 4 -65
9 -9 6 -42 21 -73 34 l-57 25 -4 53 c-4 45 4 77 45 194 27 77 54 154 59 172
15 44 31 47 88 18 70 -36 207 -69 234 -57 19 8 18 10 -14 17 -103 21 -255 117
-305 191 -46 70 -58 124 -59 265 -1 115 -1 116 38 195 78 156 218 248 421 275
66 8 203 3 278 -11z"/>
<path d="M726 2363 c-6 -14 -5 -15 5 -6 7 7 10 15 7 18 -3 3 -9 -2 -12 -12z"/>
<path d="M660 2335 c0 -8 5 -15 10 -15 6 0 10 7 10 15 0 8 -4 15 -10 15 -5 0
-10 -7 -10 -15z"/>
<path d="M4529 2068 c-55 -69 -61 -84 -45 -122 11 -27 11 -33 0 -33 -7 0 -11
4 -8 9 3 4 0 16 -5 25 -9 16 -10 15 -11 -5 0 -13 -4 -20 -10 -17 -6 4 -7 -1
-3 -11 5 -12 3 -15 -6 -9 -10 6 -12 0 -6 -23 3 -17 2 -33 -4 -37 -7 -4 -8 0
-4 11 4 12 3 15 -5 10 -16 -10 -15 -22 3 -40 14 -13 13 -16 -4 -28 -16 -11
-20 -30 -24 -127 -5 -96 -4 -112 9 -107 7 3 14 1 14 -3 0 -5 -4 -11 -9 -13
-16 -6 7 -106 33 -145 14 -21 26 -45 26 -55 0 -9 5 -20 10 -23 6 -4 8 -10 6
-14 -3 -4 8 -21 24 -36 17 -16 30 -25 30 -20 0 4 9 -2 20 -15 11 -13 20 -18
20 -13 0 6 -7 16 -15 23 -14 12 -16 61 -13 407 2 216 0 393 -4 393 -10 0 3 33
16 42 6 4 8 10 4 13 -3 3 -21 -13 -39 -37z m-19 -132 c0 -12 -5 -7 -19 24 -11
24 -11 24 3 6 9 -11 16 -24 16 -30z m-3 -88 c-3 -8 -6 -5 -6 6 -1 11 2 17 5
13 3 -3 4 -12 1 -19z m-7 -128 c0 -5 -4 -10 -10 -10 -5 0 -10 5 -10 10 0 6 5
10 10 10 6 0 10 -4 10 -10z m-89 -111 l-11 -34 5 34 c3 18 6 45 6 60 l2 26 4
-26 c2 -15 -1 -42 -6 -60z m66 -36 c-3 -10 -5 -2 -5 17 0 19 2 27 5 18 2 -10
2 -26 0 -35z m19 -49 c10 4 14 -3 14 -24 0 -16 -4 -31 -9 -34 -4 -3 -6 6 -3
19 3 20 0 25 -16 25 -16 0 -19 5 -14 23 5 19 7 19 10 4 2 -11 9 -16 18 -13z
m-8 -155 c-3 -8 -7 -3 -11 10 -4 17 -3 21 5 13 5 -5 8 -16 6 -23z m29 -1 c2
-17 0 -19 -7 -8 -5 8 -6 18 -4 22 8 12 10 10 11 -14z m-4 -51 c3 -8 -1 -14 -8
-14 -7 0 -11 6 -8 14 3 7 6 13 8 13 2 0 5 -6 8 -13z"/>
<path d="M4565 2070 c-3 -5 -1 -10 4 -10 6 0 11 5 11 10 0 6 -2 10 -4 10 -3 0
-8 -4 -11 -10z"/>
<path d="M352 1870 c0 -14 2 -19 5 -12 2 6 2 18 0 25 -3 6 -5 1 -5 -13z"/>
<path d="M4400 1809 c0 -5 5 -7 10 -4 6 3 10 8 10 11 0 2 -4 4 -10 4 -5 0 -10
-5 -10 -11z"/>
<path d="M725 1258 c-2 -7 -1 -35 3 -63 l9 -50 4 58 c4 55 -5 85 -16 55z"/>
<path d="M740 895 c7 -8 17 -15 22 -15 5 0 3 7 -6 15 -8 8 -18 15 -22 15 -3 0
-1 -7 6 -15z"/>
<path d="M4530 790 c-21 -13 -27 -209 -8 -264 16 -47 40 -65 61 -47 36 30 28
281 -9 308 -21 15 -24 16 -44 3z m41 -26 c15 -18 25 -183 15 -239 -4 -20 -13
-35 -21 -35 -22 0 -39 69 -40 165 0 118 13 149 46 109z"/>
<path d="M5276 781 c-48 -53 -47 -248 0 -296 9 -9 29 -14 50 -12 30 2 34 5 34
29 0 43 -17 78 -35 72 -20 -8 -19 -24 1 -24 11 0 14 -8 12 -27 -2 -22 -8 -28
-28 -28 -35 0 -50 37 -50 125 0 93 15 151 41 157 10 3 19 9 19 14 0 16 -26 10
-44 -10z"/>
<path d="M5927 788 c-27 -21 -37 -64 -37 -156 0 -63 5 -97 18 -122 15 -31 21
-35 57 -35 31 1 40 5 39 18 -4 79 -3 77 -31 77 l-28 0 24 -19 c29 -22 25 -55
-9 -59 -40 -6 -50 21 -50 134 0 110 12 154 42 154 10 0 18 5 18 10 0 14 -23
13 -43 -2z"/>
<path d="M6279 668 l0 -133 -19 65 c-11 36 -25 93 -31 128 -7 39 -16 61 -23
59 -15 -5 -19 -151 -8 -242 9 -69 9 -68 12 55 l2 125 14 -60 c33 -141 47 -185
60 -185 11 0 14 32 14 160 0 100 -4 160 -10 160 -6 0 -10 -51 -11 -132z"/>
<path d="M3196 781 c-13 -20 -63 -291 -54 -291 5 0 11 14 15 31 5 25 10 30 32
27 21 -2 27 -9 29 -35 4 -39 22 -45 22 -7 0 14 -5 80 -11 147 -10 117 -19 151
-33 128z m16 -148 c4 -61 4 -63 -20 -63 -20 0 -23 4 -19 23 3 12 9 44 13 70 9
63 21 49 26 -30z"/>
<path d="M4180 635 c0 -97 4 -155 10 -155 6 0 10 33 11 78 l0 77 20 -74 c10
-41 21 -77 24 -79 14 -15 12 10 -6 68 -16 51 -18 78 -13 137 7 75 -2 103 -32
103 -11 0 -14 -30 -14 -155z m35 75 c-4 -17 -11 -30 -16 -30 -11 0 -11 16 -3
60 6 26 9 29 16 16 5 -9 6 -30 3 -46z"/>
<path d="M4310 635 l0 -155 24 0 c32 0 43 18 14 22 -20 3 -23 9 -26 61 -2 44
0 59 12 63 20 8 21 24 1 24 -12 0 -15 13 -15 60 0 47 3 60 15 60 8 0 15 5 15
10 0 6 -9 10 -20 10 -19 0 -20 -7 -20 -155z"/>
<path d="M4402 781 c-10 -6 -9 -10 7 -14 19 -5 21 -13 23 -99 1 -51 0 -112 -1
-134 -1 -23 2 -45 8 -49 8 -4 11 38 11 139 0 91 4 146 10 146 6 0 10 5 10 10
0 12 -50 13 -68 1z"/>
<path d="M4995 780 c-3 -5 0 -10 8 -10 29 0 39 -259 11 -298 -21 -30 -13 -38
12 -11 17 19 19 35 16 165 -2 97 0 144 7 144 6 0 11 5 11 10 0 6 -13 10 -29
10 -17 0 -33 -4 -36 -10z"/>
<path d="M5093 679 c8 -132 20 -185 47 -199 24 -13 26 -13 44 6 11 10 16 34
16 68 0 79 -12 237 -18 231 -3 -2 -4 -70 -3 -150 2 -137 1 -145 -17 -145 -30
0 -43 44 -49 172 -3 65 -11 122 -16 125 -7 4 -8 -32 -4 -108z"/>
<path d="M5456 782 c-4 -7 -56 -268 -56 -284 0 -4 5 -8 10 -8 6 0 10 14 10 30
0 27 3 30 30 30 28 0 30 -3 30 -35 0 -20 5 -35 12 -35 8 0 9 28 5 103 -12 182
-22 230 -41 199z m17 -144 c6 -67 6 -68 -18 -68 -14 0 -25 2 -25 5 0 8 21 110
26 124 7 23 11 10 17 -61z"/>
<path d="M5540 635 c0 -97 4 -155 10 -155 6 0 10 35 11 83 l0 82 21 -80 c21
-84 24 -92 34 -83 3 4 -4 41 -16 83 -19 68 -20 82 -9 125 11 42 10 52 -5 74
-9 14 -23 26 -31 26 -13 0 -15 -25 -15 -155z m40 90 c0 -19 -4 -37 -10 -40 -6
-4 -10 12 -10 40 0 28 4 44 10 40 6 -3 10 -21 10 -40z"/>
<path d="M6102 770 c-6 -14 -21 -74 -32 -135 -11 -60 -23 -118 -26 -127 -3
-10 -1 -18 5 -18 5 0 12 14 16 30 5 23 12 30 31 30 20 0 24 -5 24 -29 0 -30
14 -49 24 -33 7 11 -12 235 -23 277 l-8 30 -11 -25z m17 -157 c1 -37 -2 -43
-19 -43 -24 0 -23 -4 -8 79 10 58 13 63 19 36 4 -16 7 -49 8 -72z"/>
<path d="M6401 769 c-6 -13 -20 -73 -31 -134 -12 -60 -24 -118 -26 -127 -3
-10 -1 -18 5 -18 5 0 12 14 16 30 5 23 12 30 31 30 20 0 24 -5 24 -29 0 -32
17 -51 25 -29 6 16 -21 287 -29 295 -3 3 -10 -5 -15 -18z m18 -166 c1 -27 -3
-33 -19 -33 -23 0 -24 7 -8 86 l12 59 8 -40 c4 -22 7 -55 7 -72z"/>
<path d="M6500 788 c-8 -81 -8 -308 0 -308 6 0 10 31 10 77 0 42 2 74 5 71 3
-3 13 -34 22 -69 15 -62 27 -88 37 -78 3 3 -6 41 -20 84 -20 62 -23 84 -15
103 22 48 7 122 -24 122 -8 0 -15 -1 -15 -2z m30 -69 c0 -21 -4 -39 -10 -39
-5 0 -10 21 -10 46 0 27 4 43 10 39 6 -3 10 -24 10 -46z"/>
<path d="M3302 742 c-31 -20 -44 -182 -19 -232 13 -26 67 -42 67 -20 0 7 -7
10 -15 6 -37 -14 -54 65 -39 178 6 38 12 50 30 57 13 4 24 11 24 14 0 8 -33 6
-48 -3z"/>
<path d="M3400 615 l0 -135 33 1 c29 1 30 2 7 8 -23 6 -25 12 -26 68 -2 55 0
62 20 68 l21 6 -22 9 c-23 10 -28 27 -17 68 4 14 12 21 20 18 8 -3 14 -1 14 3
0 9 -24 21 -41 21 -5 0 -9 -60 -9 -135z"/>
<path d="M3500 748 c-1 -4 -1 -218 -1 -251 1 -16 5 -26 11 -22 6 4 7 28 4 61
-6 51 -5 58 20 80 44 41 30 134 -20 134 -8 0 -14 -1 -14 -2z m40 -68 c0 -35
-14 -60 -26 -47 -9 9 8 97 17 91 5 -3 9 -23 9 -44z"/>
<path d="M3613 736 c12 -9 17 -27 17 -58 0 -85 13 -197 22 -192 5 3 7 29 4 57
-18 175 -18 187 -2 187 9 0 16 5 16 10 0 6 -17 10 -37 10 -34 -1 -36 -2 -20
-14z"/>
<path d="M3742 631 c-25 -134 -26 -155 -12 -146 6 3 10 17 10 31 0 19 5 24 24
24 19 0 26 -7 31 -30 4 -16 10 -30 15 -30 9 0 6 27 -11 129 -5 30 -9 74 -9 98
0 29 -4 43 -13 43 -9 0 -20 -38 -35 -119z m39 -74 c-14 -14 -31 1 -31 26 0 12
5 40 12 62 l12 40 8 -60 c4 -34 4 -63 -1 -68z"/>
<path d="M3917 743 c-4 -3 -7 -64 -7 -135 l0 -128 38 1 c32 1 33 2 12 8 -23 6
-25 12 -28 69 -2 51 0 62 13 62 20 0 20 16 -1 24 -23 9 -16 82 9 80 21 -2 22
12 1 20 -20 8 -29 8 -37 -1z"/>
<path d="M4018 737 c-5 -10 -8 -72 -8 -138 l0 -119 38 1 c32 1 33 2 12 8 -25
7 -25 9 -30 136 -3 73 -8 122 -12 112z"/>
<path d="M4701 633 c0 -65 2 -126 5 -135 9 -29 42 -21 64 15 24 39 27 144 6
186 -12 21 -52 51 -70 51 -2 0 -4 -53 -5 -117z m57 66 c17 -32 12 -160 -8
-184 -13 -16 -14 -16 -21 2 -4 10 -8 62 -8 116 -1 75 2 98 12 95 6 -3 18 -15
25 -29z"/>
<path d="M4847 743 c-4 -3 -7 -64 -7 -134 0 -133 4 -144 44 -129 19 6 19 7 -2
12 -20 6 -22 13 -22 67 0 48 3 61 15 61 8 0 15 5 15 10 0 6 -7 10 -15 10 -11
0 -15 12 -15 46 0 36 3 45 15 41 8 -4 17 -2 20 2 8 15 -35 27 -48 14z"/>
<path d="M5768 703 l-12 -47 -14 42 c-7 23 -18 42 -23 42 -12 0 -12 -1 13 -72
12 -37 22 -89 22 -125 1 -35 4 -63 9 -63 4 0 7 35 7 78 0 42 7 102 15 132 18
66 17 60 5 60 -5 0 -15 -21 -22 -47z"/>
</g>
</svg>
